P3
8 32
255
255 0 0 255 0 0 255 17 0 255 85 0 255 68 0 255 0 0 255 0 0 255 0 0 
255 0 0 255 0 0 255 102 0 255 119 0 255 119 0 255 51 0 255 0 0 255 0 0 
255 0 0 255 17 0 255 119 0 255 119 0 255 119 0 255 85 0 255 0 0 255 0 0 
255 0 0 255 68 0 255 119 0 255 119 0 255 119 0 255 119 0 255 17 0 255 0 0 
255 0 0 255 136 0 255 170 0 221 170 0 238 170 0 255 170 0 255 68 0 255 0 0 
255 0 0 255 238 0 221 255 0 119 255 0 153 255 0 255 255 0 255 136 0 255 0 0 
255 34 0 255 238 0 170 255 0 119 255 0 119 255 0 221 255 0 255 153 0 255 0 0 
255 51 0 255 238 0 119 255 0 119 255 0 119 255 0 187 255 0 255 170 0 255 0 0 
255 68 0 221 238 0 0 255 0 0 255 85 0 255 51 68 255 0 255 187 0 255 17 0 
255 85 0 187 238 0 0 255 34 0 255 119 0 255 102 51 255 0 255 187 0 255 34 0 
255 85 0 170 238 0 0 255 136 0 187 238 0 221 238 34 255 34 238 187 0 255 34 0 
255 102 0 153 238 0 0 238 153 0 85 255 0 136 255 34 255 68 221 187 0 255 51 0 
255 102 0 153 238 0 0 204 170 85 0 255 34 51 255 34 255 85 204 187 0 255 51 0 
255 119 0 136 238 0 0 187 187 204 0 204 119 34 238 34 255 85 204 187 0 255 68 0 
255 119 0 136 238 0 0 170 187 238 0 153 136 34 204 34 238 102 204 187 0 255 68 0 
255 119 0 136 238 0 17 170 187 238 0 153 153 34 204 34 238 102 187 187 0 255 68 0 
255 119 0 136 238 0 17 170 187 238 0 153 136 34 204 34 238 102 187 187 0 255 68 0 
255 119 0 136 238 0 0 187 187 238 0 170 136 34 221 34 238 102 204 187 0 255 68 0 
255 119 0 136 238 0 0 187 187 153 0 238 85 34 255 34 255 85 204 187 0 255 68 0 
255 102 0 153 238 0 0 221 170 34 34 255 17 85 255 34 255 68 204 187 0 255 51 0 
255 102 0 153 238 0 0 255 153 0 136 255 0 187 255 34 255 68 221 187 0 255 51 0 
255 85 0 170 238 0 0 255 102 0 221 187 0 238 187 34 255 34 238 187 0 255 34 0 
255 85 0 204 238 0 0 255 34 0 255 119 0 255 102 51 255 0 255 187 0 255 34 0 
255 68 0 221 238 0 17 255 0 17 255 68 17 255 34 85 255 0 255 187 0 255 17 0 
255 51 0 255 238 0 136 255 0 119 255 0 119 255 0 187 255 0 255 170 0 255 0 0 
255 34 0 255 238 0 170 255 0 119 255 0 119 255 0 221 255 0 255 153 0 255 0 0 
255 0 0 255 238 0 238 255 0 136 255 0 170 255 0 255 255 0 255 136 0 255 0 0 
255 0 0 255 119 0 255 153 0 238 153 0 255 153 0 255 153 0 255 51 0 255 0 0 
255 0 0 255 68 0 255 119 0 255 119 0 255 119 0 255 119 0 255 17 0 255 0 0 
255 0 0 255 17 0 255 119 0 255 119 0 255 119 0 255 85 0 255 0 0 255 0 0 
255 0 0 255 0 0 255 85 0 255 119 0 255 119 0 255 34 0 255 0 0 255 0 0 
255 0 0 255 0 0 255 0 0 255 68 0 255 51 0 255 0 0 255 0 0 255 0 0 
