P3
8 8
255
255 0 0 255 17 0 255 85 0 255 119 0 255 102 0 255 68 0 255 0 0 255 0 0 
255 17 0 255 221 0 187 238 0 153 238 0 153 238 0 221 238 0 255 136 0 255 0 0 
255 85 0 187 238 0 0 255 85 0 187 187 0 221 170 51 255 17 238 187 0 255 34 0 
255 119 0 136 238 0 0 187 187 187 0 187 119 34 221 34 238 85 204 187 0 255 68 0 
255 119 0 136 238 0 0 187 187 153 17 204 85 51 238 34 255 85 204 187 0 255 68 0 
255 85 0 187 238 0 0 255 68 0 221 153 0 238 136 51 255 17 238 187 0 255 34 0 
255 17 0 255 204 0 204 221 0 153 221 0 170 221 0 238 221 0 255 119 0 255 0 0 
255 0 0 255 17 0 255 85 0 255 102 0 255 102 0 255 51 0 255 0 0 255 0 0 
