P3
4 4
255
255 255 0 255 255 0 255 255 0 255 255 0 
255 255 0 255 0 119 255 0 119 255 255 0 
255 255 0 255 0 119 255 0 119 255 255 0 
255 255 0 255 255 0 255 255 0 255 255 0 
