P3
6 6
255
255 0 255 255 0 255 255 0 255 255 0 255 255 0 255 255 0 255 
255 0 255 0 119 255 0 119 255 0 119 255 0 119 255 255 0 255 
255 0 255 0 119 255 0 255 0 0 255 0 0 119 255 255 0 255 
255 0 255 0 119 255 0 255 0 0 255 0 0 119 255 255 0 255 
255 0 255 0 119 255 0 119 255 0 119 255 0 119 255 255 0 255 
255 0 255 255 0 255 255 0 255 255 0 255 255 0 255 255 0 255 
