P3
36 36
255
0 0 0 0 0 0 0 0 0 0 0 0 0 0 0 0 0 0 0 0 0 0 0 0 0 0 0 0 0 0 255 0 255 255 0 119 255 0 0 255 119 0 255 255 0 119 255 0 0 255 0 0 255 119 0 255 255 0 119 255 0 0 255 119 0 255 255 0 255 255 0 119 255 0 0 255 119 0 255 255 0 119 255 0 0 255 0 0 255 119 0 255 255 0 119 255 0 0 255 119 0 255 255 0 255 255 0 119 
0 0 0 0 0 0 0 0 0 0 0 0 0 0 0 0 0 0 0 0 0 0 0 0 0 0 0 0 0 0 255 0 255 255 0 119 255 0 0 255 119 0 255 255 0 119 255 0 0 255 0 0 255 119 0 255 255 0 119 255 0 0 255 119 0 255 255 0 255 255 0 119 255 0 0 255 119 0 255 255 0 119 255 0 0 255 0 0 255 119 0 255 255 0 119 255 0 0 255 119 0 255 255 0 255 255 0 119 
255 0 0 255 119 0 255 255 0 119 255 0 0 255 0 0 255 119 0 0 0 0 0 0 0 0 0 119 0 255 255 0 255 255 0 119 255 0 0 255 119 0 255 255 0 119 255 0 0 255 0 0 255 119 0 255 255 0 119 255 0 0 255 119 0 255 255 0 255 255 0 119 255 0 0 255 119 0 255 255 0 119 255 0 0 255 0 0 255 119 0 255 255 0 119 255 0 0 255 119 0 255 255 0 255 255 0 119 
255 0 0 255 119 0 255 255 0 119 255 0 0 255 0 0 0 0 0 0 0 0 0 0 0 0 255 119 0 255 255 0 255 255 0 119 255 0 0 255 119 0 255 255 0 119 255 0 0 255 0 0 255 119 0 255 255 0 119 255 0 0 255 119 0 255 255 0 255 255 0 119 255 0 0 255 119 0 255 255 0 119 255 0 0 255 0 0 255 119 0 255 255 0 119 255 0 0 255 119 0 255 255 0 255 255 0 119 
255 0 0 255 119 0 255 255 0 119 255 0 0 0 0 0 0 0 0 0 0 0 119 255 0 0 255 119 0 255 255 0 255 255 0 119 255 0 0 255 119 0 255 255 0 119 255 0 0 255 0 0 255 119 0 255 255 0 119 255 0 0 255 119 0 255 255 0 255 255 0 119 255 0 0 255 119 0 255 255 0 119 255 0 0 255 0 0 255 119 0 255 255 0 119 255 0 0 255 119 0 255 255 0 255 255 0 119 
255 0 0 255 119 0 255 255 0 0 0 0 0 0 0 0 0 0 0 255 255 0 119 255 0 0 255 119 0 255 255 0 255 255 0 119 255 0 0 255 119 0 255 255 0 119 255 0 0 255 0 0 255 119 0 255 255 0 119 255 0 0 255 119 0 255 255 0 255 255 0 119 255 0 0 255 119 0 255 255 0 119 255 0 0 255 0 0 255 119 0 255 255 0 119 255 0 0 255 119 0 255 255 0 255 255 0 119 
255 0 0 255 119 0 0 0 0 0 0 0 0 0 0 0 0 0 0 0 0 0 0 0 0 0 255 119 0 255 255 0 255 255 0 119 255 0 0 255 119 0 255 255 0 119 255 0 0 255 0 0 255 119 0 255 255 0 119 255 0 0 255 119 0 255 255 0 255 255 0 119 255 0 0 255 119 0 255 255 0 119 255 0 0 255 0 0 255 119 0 255 255 0 119 255 0 0 255 119 0 255 255 0 255 255 0 119 
255 0 0 255 119 0 0 0 0 0 0 0 0 255 0 0 255 119 0 0 0 0 0 0 0 0 0 119 0 255 255 0 255 255 0 119 255 0 0 255 119 0 255 255 0 119 255 0 0 255 0 0 255 119 0 255 255 0 119 255 0 0 255 119 0 255 255 0 255 255 0 119 255 0 0 255 119 0 255 255 0 119 255 0 0 255 0 0 255 119 0 255 255 0 119 255 0 0 255 119 0 255 255 0 255 255 0 119 
255 0 0 255 119 0 255 255 0 119 255 0 0 255 0 0 255 119 0 255 255 0 0 0 0 0 0 0 0 0 255 0 255 255 0 119 255 0 0 255 119 0 255 255 0 119 255 0 0 255 0 0 255 119 0 255 255 0 119 255 0 0 255 119 0 255 255 0 255 255 0 119 255 0 0 255 119 0 255 255 0 119 255 0 0 255 0 0 255 119 0 255 255 0 119 255 0 0 255 119 0 255 255 0 255 255 0 119 
255 0 0 255 119 0 255 255 0 119 255 0 0 255 0 0 255 119 0 255 255 0 119 255 0 0 0 0 0 0 255 0 255 255 0 119 255 0 0 255 119 0 255 255 0 119 255 0 0 255 0 0 255 119 0 255 255 0 119 255 0 0 255 119 0 255 255 0 255 255 0 119 255 0 0 255 119 0 255 255 0 119 255 0 0 255 0 0 255 119 0 255 255 0 119 255 0 0 255 119 0 255 255 0 255 255 0 119 
255 0 0 255 119 0 255 255 0 119 255 0 0 255 0 0 255 119 0 255 255 0 119 255 0 0 0 0 0 0 255 0 255 255 0 119 255 0 0 255 119 0 255 255 0 119 255 0 0 255 0 0 255 119 0 255 255 0 119 255 0 0 255 119 0 255 255 0 255 255 0 119 255 0 0 255 119 0 255 255 0 119 255 0 0 255 0 0 255 119 0 255 255 0 119 255 0 0 255 119 0 255 255 0 255 255 0 119 
255 0 0 255 119 0 255 255 0 119 255 0 0 255 0 0 255 119 0 255 255 0 119 255 0 0 0 0 0 0 255 0 255 255 0 119 255 0 0 255 119 0 255 255 0 119 255 0 0 255 0 0 255 119 0 255 255 0 119 255 0 0 255 119 0 255 255 0 255 255 0 119 255 0 0 255 119 0 255 255 0 119 255 0 0 255 0 0 255 119 0 255 255 0 119 255 0 0 255 119 0 255 255 0 255 255 0 119 
0 0 0 0 0 0 255 255 0 119 255 0 0 255 0 0 255 119 0 255 255 0 119 255 0 0 0 0 0 0 255 0 255 255 0 119 255 0 0 255 119 0 255 255 0 119 255 0 0 255 0 0 255 119 0 255 255 0 119 255 0 0 255 119 0 255 255 0 255 255 0 119 255 0 0 255 119 0 255 255 0 119 255 0 0 255 0 0 255 119 0 255 255 0 119 255 0 0 255 119 0 255 255 0 255 255 0 119 
0 0 0 0 0 0 0 0 0 119 255 0 0 255 0 0 255 119 0 255 255 0 0 0 0 0 0 0 0 0 255 0 255 255 0 119 255 0 0 255 119 0 255 255 0 119 255 0 0 255 0 0 255 119 0 255 255 0 119 255 0 0 255 119 0 255 255 0 255 255 0 119 255 0 0 255 119 0 255 255 0 119 255 0 0 255 0 0 255 119 0 255 255 0 119 255 0 0 255 119 0 255 255 0 255 255 0 119 
255 0 0 0 0 0 0 0 0 0 0 0 0 0 0 0 0 0 0 0 0 0 0 0 0 0 0 119 0 255 255 0 255 255 0 119 255 0 0 255 119 0 255 255 0 119 255 0 0 255 0 0 255 119 0 255 255 0 119 255 0 0 255 119 0 255 255 0 255 255 0 119 255 0 0 255 119 0 255 255 0 119 255 0 0 255 0 0 255 119 0 255 255 0 119 255 0 0 255 119 0 255 255 0 255 255 0 119 
255 0 0 255 119 0 0 0 0 0 0 0 0 0 0 0 0 0 0 0 0 0 0 0 0 0 255 119 0 255 255 0 255 255 0 119 255 0 0 255 119 0 255 255 0 119 255 0 0 255 0 0 255 119 0 255 255 0 119 255 0 0 255 119 0 255 255 0 255 255 0 119 255 0 0 255 119 0 255 255 0 119 255 0 0 255 0 0 255 119 0 255 255 0 119 255 0 0 255 119 0 255 255 0 255 255 0 119 
255 0 0 255 119 0 255 255 0 119 255 0 0 255 0 0 255 119 0 255 255 0 119 255 0 0 255 119 0 255 255 0 255 255 0 119 255 0 0 255 119 0 255 255 0 119 255 0 0 255 0 0 255 119 0 255 255 0 119 255 0 0 255 119 0 255 255 0 255 255 0 119 255 0 0 255 119 0 255 255 0 119 255 0 0 255 0 0 255 119 0 255 255 0 119 255 0 0 255 119 0 255 255 0 255 255 0 119 
255 0 0 255 119 0 255 255 0 119 255 0 0 255 0 0 255 119 0 255 255 0 119 255 0 0 255 119 0 255 255 0 255 255 0 119 255 0 0 255 119 0 255 255 0 119 255 0 0 255 0 0 255 119 0 255 255 0 119 255 0 0 255 119 0 255 255 0 255 255 0 119 255 0 0 255 119 0 255 255 0 119 255 0 0 255 0 0 255 119 0 255 255 0 119 255 0 0 255 119 0 255 255 0 255 255 0 119 
255 0 0 255 119 0 255 255 0 119 255 0 0 255 0 0 255 119 0 255 255 0 119 255 0 0 255 119 0 255 255 0 255 255 0 119 255 0 0 255 119 0 255 255 0 119 255 0 0 255 0 0 255 119 0 255 255 0 119 255 0 0 255 119 0 255 255 0 255 255 0 119 255 0 0 255 119 0 255 255 0 119 255 0 0 255 0 0 255 119 0 255 255 0 119 255 0 0 255 119 0 255 255 0 255 255 0 119 
255 0 0 255 119 0 255 255 0 119 255 0 0 255 0 0 255 119 0 255 255 0 119 255 0 0 255 119 0 255 255 0 255 255 0 119 255 0 0 255 119 0 255 255 0 119 255 0 0 255 0 0 255 119 0 255 255 0 119 255 0 0 255 119 0 255 255 0 255 255 0 119 255 0 0 255 119 0 255 255 0 119 255 0 0 255 0 0 255 119 0 255 255 0 119 255 0 0 255 119 0 255 255 0 255 255 0 119 
255 0 0 255 119 0 255 255 0 119 255 0 0 255 0 0 255 119 0 255 255 0 119 255 0 0 255 119 0 255 255 0 255 255 0 119 255 0 0 255 119 0 255 255 0 119 255 0 0 255 0 0 255 119 0 255 255 0 119 255 0 0 255 119 0 255 255 0 255 255 0 119 255 0 0 255 119 0 255 255 0 119 255 0 0 0 0 0 0 0 0 0 0 0 0 0 0 0 0 0 0 0 255 0 255 255 0 119 
255 0 0 255 119 0 255 255 0 119 255 0 0 255 0 0 255 119 0 255 255 0 119 255 0 0 255 119 0 255 255 0 255 255 0 119 255 0 0 255 119 0 255 255 0 119 255 0 0 255 0 0 255 119 0 255 255 0 119 255 0 0 255 119 0 255 255 0 255 255 0 119 255 0 0 255 119 0 255 255 0 0 0 0 0 0 0 0 0 0 0 0 0 0 0 0 0 0 0 0 0 0 0 0 0 255 0 119 
255 0 0 255 119 0 255 255 0 119 255 0 0 255 0 0 255 119 0 255 255 0 119 255 0 0 255 119 0 255 255 0 255 255 0 119 255 0 0 255 119 0 255 255 0 119 255 0 0 255 0 0 255 119 0 255 255 0 119 255 0 0 255 119 0 255 255 0 255 255 0 119 255 0 0 255 119 0 0 0 0 0 0 0 0 0 0 0 255 119 0 255 255 0 119 255 0 0 255 0 0 0 0 0 0 0 0 0 
255 0 0 255 119 0 255 255 0 119 255 0 0 255 0 0 255 119 0 255 255 0 119 255 0 0 255 119 0 255 255 0 255 255 0 119 255 0 0 255 119 0 255 255 0 119 255 0 0 255 0 0 255 119 0 255 255 0 119 255 0 0 255 119 0 255 255 0 255 255 0 119 255 0 0 255 119 0 0 0 0 0 0 0 0 255 0 0 255 119 0 255 255 0 119 255 0 0 255 119 0 255 0 0 0 0 0 0 
255 0 0 255 119 0 255 255 0 119 255 0 0 255 0 0 255 119 0 255 255 0 119 255 0 0 255 119 0 255 255 0 255 255 0 119 255 0 0 255 119 0 255 255 0 119 255 0 0 255 0 0 255 119 0 255 255 0 119 255 0 0 255 119 0 255 255 0 255 255 0 119 255 0 0 255 119 0 0 0 0 0 0 0 0 255 0 0 255 119 0 255 255 0 119 255 0 0 255 119 0 255 255 0 255 255 0 119 
255 0 0 255 119 0 255 255 0 119 255 0 0 255 0 0 255 119 0 255 255 0 119 255 0 0 255 119 0 255 255 0 255 255 0 119 255 0 0 255 119 0 255 255 0 119 255 0 0 255 0 0 255 119 0 255 255 0 119 255 0 0 255 119 0 255 255 0 255 255 0 119 255 0 0 255 119 0 0 0 0 0 0 0 0 255 0 0 255 119 0 255 255 0 119 255 0 0 255 119 0 255 255 0 255 255 0 119 
255 0 0 255 119 0 255 255 0 119 255 0 0 255 0 0 255 119 0 255 255 0 119 255 0 0 255 119 0 255 255 0 255 255 0 119 255 0 0 255 119 0 255 255 0 119 255 0 0 255 0 0 255 119 0 255 255 0 119 255 0 0 255 119 0 255 255 0 255 255 0 119 255 0 0 255 119 0 0 0 0 0 0 0 0 255 0 0 0 0 0 0 0 0 0 0 0 0 0 0 0 0 255 0 255 255 0 119 
255 0 0 255 119 0 255 255 0 119 255 0 0 255 0 0 255 119 0 255 255 0 119 255 0 0 255 119 0 255 255 0 255 255 0 119 255 0 0 255 119 0 255 255 0 119 255 0 0 255 0 0 255 119 0 255 255 0 119 255 0 0 255 119 0 255 255 0 255 255 0 119 255 0 0 255 119 0 0 0 0 0 0 0 0 0 0 0 0 0 0 0 0 0 0 0 0 0 0 0 0 0 0 0 0 255 0 119 
255 0 0 255 119 0 255 255 0 119 255 0 0 255 0 0 255 119 0 255 255 0 119 255 0 0 255 119 0 255 255 0 255 255 0 119 255 0 0 255 119 0 255 255 0 119 255 0 0 255 0 0 255 119 0 255 255 0 119 255 0 0 255 119 0 255 255 0 255 255 0 119 255 0 0 255 119 0 0 0 0 0 0 0 0 0 0 0 0 0 0 255 255 0 119 255 0 0 255 0 0 0 0 0 0 0 0 0 
255 0 0 255 119 0 255 255 0 119 255 0 0 255 0 0 255 119 0 255 255 0 119 255 0 0 255 119 0 255 255 0 255 255 0 119 255 0 0 255 119 0 255 255 0 119 255 0 0 255 0 0 255 119 0 255 255 0 119 255 0 0 255 119 0 255 255 0 255 255 0 119 255 0 0 255 119 0 0 0 0 0 0 0 0 255 0 0 255 119 0 255 255 0 119 255 0 0 255 119 0 255 0 0 0 0 0 0 
255 0 0 255 119 0 255 255 0 119 255 0 0 255 0 0 255 119 0 255 255 0 119 255 0 0 255 119 0 255 255 0 255 255 0 119 255 0 0 255 119 0 255 255 0 119 255 0 0 255 0 0 255 119 0 255 255 0 119 255 0 0 255 119 0 255 255 0 255 255 0 119 255 0 0 255 119 0 0 0 0 0 0 0 0 255 0 0 255 119 0 255 255 0 119 255 0 0 255 119 0 255 0 0 0 0 0 0 
255 0 0 255 119 0 255 255 0 119 255 0 0 255 0 0 255 119 0 255 255 0 119 255 0 0 255 119 0 255 255 0 255 255 0 119 255 0 0 255 119 0 255 255 0 119 255 0 0 255 0 0 255 119 0 255 255 0 119 255 0 0 255 119 0 255 255 0 255 255 0 119 255 0 0 255 119 0 0 0 0 0 0 0 0 255 0 0 255 119 0 255 255 0 119 255 0 0 255 119 0 255 0 0 0 0 0 0 
255 0 0 255 119 0 255 255 0 119 255 0 0 255 0 0 255 119 0 255 255 0 119 255 0 0 255 119 0 255 255 0 255 255 0 119 255 0 0 255 119 0 255 255 0 119 255 0 0 255 0 0 255 119 0 255 255 0 119 255 0 0 255 119 0 255 255 0 255 255 0 119 255 0 0 255 119 0 0 0 0 0 0 0 0 255 0 0 255 119 0 255 255 0 119 255 0 0 255 119 0 255 0 0 0 0 0 0 
255 0 0 255 119 0 255 255 0 119 255 0 0 255 0 0 255 119 0 255 255 0 119 255 0 0 255 119 0 255 255 0 255 255 0 119 255 0 0 255 119 0 255 255 0 119 255 0 0 255 0 0 255 119 0 255 255 0 119 255 0 0 255 119 0 255 255 0 255 255 0 119 255 0 0 255 119 0 0 0 0 0 0 0 0 0 0 0 255 119 0 255 255 0 119 255 0 0 255 0 0 0 0 0 0 0 0 0 
255 0 0 255 119 0 255 255 0 119 255 0 0 255 0 0 255 119 0 255 255 0 119 255 0 0 255 119 0 255 255 0 255 255 0 119 255 0 0 255 119 0 255 255 0 119 255 0 0 255 0 0 255 119 0 255 255 0 119 255 0 0 255 119 0 255 255 0 255 255 0 119 255 0 0 255 119 0 255 255 0 0 0 0 0 0 0 0 0 0 0 0 0 0 0 0 0 0 0 0 0 0 0 0 0 255 0 119 
255 0 0 255 119 0 255 255 0 119 255 0 0 255 0 0 255 119 0 255 255 0 119 255 0 0 255 119 0 255 255 0 255 255 0 119 255 0 0 255 119 0 255 255 0 119 255 0 0 255 0 0 255 119 0 255 255 0 119 255 0 0 255 119 0 255 255 0 255 255 0 119 255 0 0 255 119 0 255 255 0 119 255 0 0 0 0 0 0 0 0 0 0 0 0 0 0 0 0 0 0 0 255 0 255 255 0 119 
