P3
37 37
255
0 0 0 0 0 0 0 0 0 0 0 0 0 0 0 0 0 0 0 0 0 0 0 0 0 0 0 0 0 0 255 0 0 255 0 0 255 0 0 255 0 0 255 0 0 255 0 0 255 0 0 255 0 0 255 0 0 255 0 0 255 0 0 255 0 0 255 0 0 255 0 0 255 0 0 255 0 0 255 0 0 255 0 0 255 0 0 255 0 0 255 0 0 255 0 0 255 0 0 255 0 0 255 0 0 255 0 0 255 0 0 
0 0 0 0 0 0 0 0 0 0 0 0 0 0 0 0 0 0 0 0 0 0 0 0 0 0 0 0 0 0 255 119 0 255 119 0 255 119 0 255 119 0 255 119 0 255 119 0 255 119 0 255 119 0 255 119 0 255 119 0 255 119 0 255 119 0 255 119 0 255 119 0 255 119 0 255 119 0 255 119 0 255 119 0 255 119 0 255 119 0 255 119 0 255 119 0 255 119 0 255 119 0 255 119 0 255 119 0 255 119 0 
255 255 0 255 255 0 255 255 0 255 255 0 255 255 0 255 255 0 0 0 0 0 0 0 0 0 0 255 255 0 255 255 0 255 255 0 255 255 0 255 255 0 255 255 0 255 255 0 255 255 0 255 255 0 255 255 0 255 255 0 255 255 0 255 255 0 255 255 0 255 255 0 255 255 0 255 255 0 255 255 0 255 255 0 255 255 0 255 255 0 255 255 0 255 255 0 255 255 0 255 255 0 255 255 0 255 255 0 255 255 0 
119 255 0 119 255 0 119 255 0 119 255 0 119 255 0 0 0 0 0 0 0 0 0 0 119 255 0 119 255 0 119 255 0 119 255 0 119 255 0 119 255 0 119 255 0 119 255 0 119 255 0 119 255 0 119 255 0 119 255 0 119 255 0 119 255 0 119 255 0 119 255 0 119 255 0 119 255 0 119 255 0 119 255 0 119 255 0 119 255 0 119 255 0 119 255 0 119 255 0 119 255 0 119 255 0 119 255 0 119 255 0 
0 255 0 0 255 0 0 255 0 0 255 0 0 0 0 0 0 0 0 0 0 0 255 0 0 255 0 0 255 0 0 255 0 0 255 0 0 255 0 0 255 0 0 255 0 0 255 0 0 255 0 0 255 0 0 255 0 0 255 0 0 255 0 0 255 0 0 255 0 0 255 0 0 255 0 0 255 0 0 255 0 0 255 0 0 255 0 0 255 0 0 255 0 0 255 0 0 255 0 0 255 0 0 255 0 0 255 0 0 255 0 
0 255 119 0 255 119 0 255 119 0 0 0 0 0 0 0 0 0 0 255 119 0 255 119 0 255 119 0 255 119 0 255 119 0 255 119 0 255 119 0 255 119 0 255 119 0 255 119 0 255 119 0 255 119 0 255 119 0 255 119 0 255 119 0 255 119 0 255 119 0 255 119 0 255 119 0 255 119 0 255 119 0 255 119 0 255 119 0 255 119 0 255 119 0 255 119 0 255 119 0 255 119 0 255 119 0 255 119 0 255 119 
0 255 255 0 255 255 0 0 0 0 0 0 0 0 0 0 0 0 0 0 0 0 0 0 0 255 255 0 255 255 0 255 255 0 255 255 0 255 255 0 255 255 0 255 255 0 255 255 0 255 255 0 255 255 0 255 255 0 255 255 0 255 255 0 255 255 0 255 255 0 255 255 0 255 255 0 255 255 0 255 255 0 255 255 0 255 255 0 255 255 0 255 255 0 255 255 0 255 255 0 255 255 0 255 255 0 255 255 0 255 255 
0 119 255 0 119 255 0 0 0 0 0 0 0 119 255 0 119 255 0 0 0 0 0 0 0 0 0 0 119 255 0 119 255 0 119 255 0 119 255 0 119 255 0 119 255 0 119 255 0 119 255 0 119 255 0 119 255 0 119 255 0 119 255 0 119 255 0 119 255 0 119 255 0 119 255 0 119 255 0 119 255 0 119 255 0 119 255 0 119 255 0 119 255 0 119 255 0 119 255 0 119 255 0 119 255 0 119 255 0 119 255 
0 0 255 0 0 255 0 0 255 0 0 255 0 0 255 0 0 255 0 0 255 0 0 0 0 0 0 0 0 0 0 0 255 0 0 255 0 0 255 0 0 255 0 0 255 0 0 255 0 0 255 0 0 255 0 0 255 0 0 255 0 0 255 0 0 255 0 0 255 0 0 255 0 0 255 0 0 255 0 0 255 0 0 255 0 0 255 0 0 255 0 0 255 0 0 255 0 0 255 0 0 255 0 0 255 0 0 255 0 0 255 
119 0 255 119 0 255 119 0 255 119 0 255 119 0 255 119 0 255 119 0 255 119 0 255 0 0 0 0 0 0 119 0 255 119 0 255 119 0 255 119 0 255 119 0 255 119 0 255 119 0 255 119 0 255 119 0 255 119 0 255 119 0 255 119 0 255 119 0 255 119 0 255 119 0 255 119 0 255 119 0 255 119 0 255 119 0 255 119 0 255 119 0 255 119 0 255 119 0 255 119 0 255 119 0 255 119 0 255 119 0 255 
255 0 255 255 0 255 255 0 255 255 0 255 255 0 255 255 0 255 255 0 255 255 0 255 0 0 0 0 0 0 255 0 255 255 0 255 255 0 255 255 0 255 255 0 255 255 0 255 255 0 255 255 0 255 255 0 255 255 0 255 255 0 255 255 0 255 255 0 255 255 0 255 255 0 255 255 0 255 255 0 255 255 0 255 255 0 255 255 0 255 255 0 255 255 0 255 255 0 255 255 0 255 255 0 255 255 0 255 255 0 255 
255 0 119 255 0 119 255 0 119 255 0 119 255 0 119 255 0 119 255 0 119 255 0 119 0 0 0 0 0 0 255 0 119 255 0 119 255 0 119 255 0 119 255 0 119 255 0 119 255 0 119 255 0 119 255 0 119 255 0 119 255 0 119 255 0 119 255 0 119 255 0 119 255 0 119 255 0 119 255 0 119 255 0 119 255 0 119 255 0 119 255 0 119 255 0 119 255 0 119 255 0 119 255 0 119 255 0 119 255 0 119 
0 0 0 0 0 0 255 0 0 255 0 0 255 0 0 255 0 0 255 0 0 255 0 0 0 0 0 0 0 0 255 0 0 255 0 0 255 0 0 255 0 0 255 0 0 255 0 0 255 0 0 255 0 0 255 0 0 255 0 0 255 0 0 255 0 0 255 0 0 255 0 0 255 0 0 255 0 0 255 0 0 255 0 0 255 0 0 255 0 0 255 0 0 255 0 0 255 0 0 255 0 0 255 0 0 255 0 0 255 0 0 
0 0 0 0 0 0 0 0 0 255 119 0 255 119 0 255 119 0 255 119 0 0 0 0 0 0 0 0 0 0 255 119 0 255 119 0 255 119 0 255 119 0 255 119 0 255 119 0 255 119 0 255 119 0 255 119 0 255 119 0 255 119 0 255 119 0 255 119 0 255 119 0 255 119 0 255 119 0 255 119 0 255 119 0 255 119 0 255 119 0 255 119 0 255 119 0 255 119 0 255 119 0 255 119 0 255 119 0 255 119 0 
255 255 0 0 0 0 0 0 0 0 0 0 0 0 0 0 0 0 0 0 0 0 0 0 0 0 0 255 255 0 255 255 0 255 255 0 255 255 0 255 255 0 255 255 0 255 255 0 255 255 0 255 255 0 255 255 0 255 255 0 255 255 0 255 255 0 255 255 0 255 255 0 255 255 0 255 255 0 255 255 0 255 255 0 255 255 0 255 255 0 255 255 0 255 255 0 255 255 0 255 255 0 255 255 0 255 255 0 255 255 0 
119 255 0 119 255 0 0 0 0 0 0 0 0 0 0 0 0 0 0 0 0 0 0 0 119 255 0 119 255 0 119 255 0 119 255 0 119 255 0 119 255 0 119 255 0 119 255 0 119 255 0 119 255 0 119 255 0 119 255 0 119 255 0 119 255 0 119 255 0 119 255 0 119 255 0 119 255 0 119 255 0 119 255 0 119 255 0 119 255 0 119 255 0 119 255 0 119 255 0 119 255 0 119 255 0 119 255 0 119 255 0 
0 255 0 0 255 0 0 255 0 0 255 0 0 255 0 0 255 0 0 255 0 0 255 0 0 255 0 0 255 0 0 255 0 0 255 0 0 255 0 0 255 0 0 255 0 0 255 0 0 255 0 0 255 0 0 255 0 0 255 0 0 255 0 0 255 0 0 255 0 0 255 0 0 255 0 0 255 0 0 255 0 0 255 0 0 255 0 0 255 0 0 255 0 0 255 0 0 255 0 0 255 0 0 255 0 0 255 0 0 255 0 
0 255 119 0 255 119 0 255 119 0 255 119 0 255 119 0 255 119 0 255 119 0 255 119 0 255 119 0 255 119 0 255 119 0 255 119 0 255 119 0 255 119 0 255 119 0 255 119 0 255 119 0 255 119 0 255 119 0 255 119 0 255 119 0 255 119 0 255 119 0 255 119 0 255 119 0 255 119 0 255 119 0 255 119 0 255 119 0 255 119 0 255 119 0 255 119 0 255 119 0 255 119 0 255 119 0 255 119 0 255 119 
0 255 255 0 255 255 0 255 255 0 255 255 0 255 255 0 255 255 0 255 255 0 255 255 0 255 255 0 255 255 0 255 255 0 255 255 0 255 255 0 255 255 0 255 255 0 255 255 0 255 255 0 255 255 0 255 255 0 255 255 0 255 255 0 255 255 0 255 255 0 255 255 0 255 255 0 255 255 0 255 255 0 255 255 0 255 255 0 255 255 0 255 255 0 255 255 0 255 255 0 255 255 0 255 255 0 255 255 0 255 255 
0 119 255 0 119 255 0 119 255 0 119 255 0 119 255 0 119 255 0 119 255 0 119 255 0 119 255 0 119 255 0 119 255 0 119 255 0 119 255 0 119 255 0 119 255 0 119 255 0 119 255 0 119 255 0 119 255 0 119 255 0 119 255 0 119 255 0 119 255 0 119 255 0 119 255 0 119 255 0 119 255 0 119 255 0 119 255 0 119 255 0 119 255 0 119 255 0 119 255 0 119 255 0 119 255 0 119 255 0 119 255 
0 0 255 0 0 255 0 0 255 0 0 255 0 0 255 0 0 255 0 0 255 0 0 255 0 0 255 0 0 255 0 0 255 0 0 255 0 0 255 0 0 255 0 0 255 0 0 255 0 0 255 0 0 255 0 0 255 0 0 255 0 0 255 0 0 255 0 0 255 0 0 255 0 0 255 0 0 255 0 0 255 0 0 255 0 0 255 0 0 255 0 0 255 0 0 255 0 0 255 0 0 255 0 0 255 0 0 255 0 0 255 
119 0 255 119 0 255 119 0 255 119 0 255 119 0 255 119 0 255 119 0 255 119 0 255 119 0 255 119 0 255 119 0 255 119 0 255 119 0 255 119 0 255 119 0 255 119 0 255 119 0 255 119 0 255 119 0 255 119 0 255 119 0 255 119 0 255 119 0 255 119 0 255 119 0 255 119 0 255 119 0 255 0 0 0 0 0 0 0 0 0 0 0 0 0 0 0 0 0 0 0 0 0 0 0 0 0 0 0 0 0 0 
255 0 255 255 0 255 255 0 255 255 0 255 255 0 255 255 0 255 255 0 255 255 0 255 255 0 255 255 0 255 255 0 255 255 0 255 255 0 255 255 0 255 255 0 255 255 0 255 255 0 255 255 0 255 255 0 255 255 0 255 255 0 255 255 0 255 255 0 255 255 0 255 255 0 255 255 0 255 255 0 255 0 0 0 0 0 0 0 0 0 0 0 0 0 0 0 0 0 0 0 0 0 0 0 0 0 0 0 0 0 0 
255 0 119 255 0 119 255 0 119 255 0 119 255 0 119 255 0 119 255 0 119 255 0 119 255 0 119 255 0 119 255 0 119 255 0 119 255 0 119 255 0 119 255 0 119 255 0 119 255 0 119 255 0 119 255 0 119 255 0 119 255 0 119 255 0 119 255 0 119 255 0 119 255 0 119 255 0 119 255 0 119 255 0 119 255 0 119 255 0 119 255 0 119 255 0 119 255 0 119 255 0 119 255 0 119 0 0 0 0 0 0 
255 0 0 255 0 0 255 0 0 255 0 0 255 0 0 255 0 0 255 0 0 255 0 0 255 0 0 255 0 0 255 0 0 255 0 0 255 0 0 255 0 0 255 0 0 255 0 0 255 0 0 255 0 0 255 0 0 255 0 0 255 0 0 255 0 0 255 0 0 255 0 0 255 0 0 255 0 0 255 0 0 255 0 0 255 0 0 255 0 0 255 0 0 255 0 0 255 0 0 255 0 0 255 0 0 0 0 0 0 0 0 
255 119 0 255 119 0 255 119 0 255 119 0 255 119 0 255 119 0 255 119 0 255 119 0 255 119 0 255 119 0 255 119 0 255 119 0 255 119 0 255 119 0 255 119 0 255 119 0 255 119 0 255 119 0 255 119 0 255 119 0 255 119 0 255 119 0 255 119 0 255 119 0 255 119 0 255 119 0 255 119 0 255 119 0 255 119 0 255 119 0 255 119 0 255 119 0 255 119 0 255 119 0 0 0 0 0 0 0 0 0 0 
255 255 0 255 255 0 255 255 0 255 255 0 255 255 0 255 255 0 255 255 0 255 255 0 255 255 0 255 255 0 255 255 0 255 255 0 255 255 0 255 255 0 255 255 0 255 255 0 255 255 0 255 255 0 255 255 0 255 255 0 255 255 0 255 255 0 255 255 0 255 255 0 255 255 0 255 255 0 255 255 0 255 255 0 255 255 0 255 255 0 255 255 0 255 255 0 255 255 0 255 255 0 0 0 0 0 0 0 255 255 0 
119 255 0 119 255 0 119 255 0 119 255 0 119 255 0 119 255 0 119 255 0 119 255 0 119 255 0 119 255 0 119 255 0 119 255 0 119 255 0 119 255 0 119 255 0 119 255 0 119 255 0 119 255 0 119 255 0 119 255 0 119 255 0 119 255 0 119 255 0 119 255 0 119 255 0 119 255 0 119 255 0 119 255 0 119 255 0 119 255 0 119 255 0 119 255 0 119 255 0 0 0 0 0 0 0 0 0 0 119 255 0 
0 255 0 0 255 0 0 255 0 0 255 0 0 255 0 0 255 0 0 255 0 0 255 0 0 255 0 0 255 0 0 255 0 0 255 0 0 255 0 0 255 0 0 255 0 0 255 0 0 255 0 0 255 0 0 255 0 0 255 0 0 255 0 0 255 0 0 255 0 0 255 0 0 255 0 0 255 0 0 255 0 0 255 0 0 255 0 0 255 0 0 255 0 0 255 0 0 255 0 0 0 0 0 0 0 0 255 0 0 255 0 
0 255 119 0 255 119 0 255 119 0 255 119 0 255 119 0 255 119 0 255 119 0 255 119 0 255 119 0 255 119 0 255 119 0 255 119 0 255 119 0 255 119 0 255 119 0 255 119 0 255 119 0 255 119 0 255 119 0 255 119 0 255 119 0 255 119 0 255 119 0 255 119 0 255 119 0 255 119 0 255 119 0 255 119 0 255 119 0 255 119 0 255 119 0 255 119 0 0 0 0 0 0 0 0 0 0 255 119 0 255 119 
0 255 255 0 255 255 0 255 255 0 255 255 0 255 255 0 255 255 0 255 255 0 255 255 0 255 255 0 255 255 0 255 255 0 255 255 0 255 255 0 255 255 0 255 255 0 255 255 0 255 255 0 255 255 0 255 255 0 255 255 0 255 255 0 255 255 0 255 255 0 255 255 0 255 255 0 255 255 0 255 255 0 255 255 0 255 255 0 255 255 0 255 255 0 255 255 0 0 0 0 0 0 0 255 255 0 255 255 0 255 255 
0 119 255 0 119 255 0 119 255 0 119 255 0 119 255 0 119 255 0 119 255 0 119 255 0 119 255 0 119 255 0 119 255 0 119 255 0 119 255 0 119 255 0 119 255 0 119 255 0 119 255 0 119 255 0 119 255 0 119 255 0 119 255 0 119 255 0 119 255 0 119 255 0 119 255 0 119 255 0 119 255 0 119 255 0 119 255 0 119 255 0 119 255 0 0 0 0 0 0 0 0 0 0 119 255 0 119 255 0 119 255 
0 0 255 0 0 255 0 0 255 0 0 255 0 0 255 0 0 255 0 0 255 0 0 255 0 0 255 0 0 255 0 0 255 0 0 255 0 0 255 0 0 255 0 0 255 0 0 255 0 0 255 0 0 255 0 0 255 0 0 255 0 0 255 0 0 255 0 0 255 0 0 255 0 0 255 0 0 255 0 0 255 0 0 255 0 0 255 0 0 255 0 0 255 0 0 0 0 0 0 0 0 255 0 0 255 0 0 255 0 0 255 
119 0 255 119 0 255 119 0 255 119 0 255 119 0 255 119 0 255 119 0 255 119 0 255 119 0 255 119 0 255 119 0 255 119 0 255 119 0 255 119 0 255 119 0 255 119 0 255 119 0 255 119 0 255 119 0 255 119 0 255 119 0 255 119 0 255 119 0 255 119 0 255 119 0 255 119 0 255 119 0 255 119 0 255 119 0 255 119 0 255 0 0 0 0 0 0 0 0 0 119 0 255 119 0 255 119 0 255 119 0 255 
255 0 255 255 0 255 255 0 255 255 0 255 255 0 255 255 0 255 255 0 255 255 0 255 255 0 255 255 0 255 255 0 255 255 0 255 255 0 255 255 0 255 255 0 255 255 0 255 255 0 255 255 0 255 255 0 255 255 0 255 255 0 255 255 0 255 255 0 255 255 0 255 255 0 255 255 0 255 255 0 255 255 0 255 255 0 255 255 0 255 0 0 0 0 0 0 255 0 255 255 0 255 255 0 255 255 0 255 255 0 255 
255 0 119 255 0 119 255 0 119 255 0 119 255 0 119 255 0 119 255 0 119 255 0 119 255 0 119 255 0 119 255 0 119 255 0 119 255 0 119 255 0 119 255 0 119 255 0 119 255 0 119 255 0 119 255 0 119 255 0 119 255 0 119 255 0 119 255 0 119 255 0 119 255 0 119 255 0 119 255 0 119 255 0 119 255 0 119 0 0 0 0 0 0 0 0 0 255 0 119 255 0 119 255 0 119 255 0 119 255 0 119 
255 0 0 255 0 0 255 0 0 255 0 0 255 0 0 255 0 0 255 0 0 255 0 0 255 0 0 255 0 0 255 0 0 255 0 0 255 0 0 255 0 0 255 0 0 255 0 0 255 0 0 255 0 0 255 0 0 255 0 0 255 0 0 255 0 0 255 0 0 255 0 0 255 0 0 255 0 0 255 0 0 255 0 0 255 0 0 0 0 0 0 0 0 255 0 0 255 0 0 255 0 0 255 0 0 255 0 0 255 0 0 
