P3
32 8
255
255 0 0 255 0 0 255 0 0 255 0 0 255 0 0 255 0 0 255 34 0 255 51 0 255 68 0 255 85 0 255 85 0 255 102 0 255 102 0 255 119 0 255 119 0 255 119 0 255 119 0 255 119 0 255 102 0 255 102 0 255 85 0 255 68 0 255 68 0 255 34 0 255 17 0 255 0 0 255 0 0 255 0 0 255 0 0 255 0 0 255 0 0 255 0 0 
255 0 0 255 0 0 255 17 0 255 68 0 255 153 0 255 238 0 255 238 0 255 238 0 221 238 0 204 238 0 187 238 0 170 238 0 153 238 0 153 238 0 153 238 0 136 238 0 153 238 0 153 238 0 153 238 0 170 238 0 187 238 0 204 238 0 238 238 0 255 238 0 255 238 0 255 204 0 255 85 0 255 34 0 255 0 0 255 0 0 255 0 0 255 0 0 
255 17 0 255 85 0 255 119 0 255 119 0 255 187 0 238 255 0 170 255 0 102 255 0 0 255 0 0 255 34 0 255 136 0 238 153 0 221 170 0 187 170 0 187 187 0 187 187 0 187 187 0 204 170 0 221 153 0 255 153 0 255 102 0 255 17 17 255 0 153 255 0 204 255 0 255 238 0 255 119 0 255 119 0 255 102 0 255 34 0 255 0 0 255 0 0 
255 102 0 255 119 0 255 119 0 255 119 0 221 187 0 119 255 0 119 255 0 85 255 17 0 255 102 0 255 119 0 170 255 17 68 255 119 0 255 221 0 187 221 0 170 221 0 153 221 0 170 187 0 204 68 0 255 0 119 255 0 204 204 0 255 119 17 255 51 119 255 0 119 255 0 170 238 0 255 119 0 255 119 0 255 119 0 255 119 0 255 34 0 255 0 0 
255 102 0 255 119 0 255 119 0 255 119 0 221 187 0 119 255 0 119 255 0 85 255 17 0 255 102 0 255 119 0 187 255 17 85 255 85 17 255 170 17 204 187 17 187 187 17 187 187 17 187 153 17 221 51 17 255 0 136 255 0 221 204 0 255 119 17 255 51 119 255 0 119 255 0 170 238 0 255 119 0 255 119 0 255 119 0 255 119 0 255 17 0 255 0 0 
255 17 0 255 85 0 255 119 0 255 119 0 255 187 0 238 255 0 170 255 0 102 255 0 0 255 0 0 255 34 0 255 102 0 255 136 0 238 136 0 221 153 0 221 153 0 204 153 0 221 153 0 221 153 0 238 136 0 255 119 0 255 85 0 255 17 34 255 0 153 255 0 204 255 0 255 238 0 255 119 0 255 119 0 255 102 0 255 34 0 255 0 0 255 0 0 
255 0 0 255 0 0 255 17 0 255 51 0 255 136 0 255 221 0 255 221 0 255 221 0 238 221 0 204 221 0 187 221 0 170 221 0 170 221 0 153 221 0 153 221 0 153 221 0 153 221 0 153 221 0 170 221 0 187 221 0 204 221 0 221 221 0 255 221 0 255 221 0 255 221 0 255 187 0 255 68 0 255 34 0 255 0 0 255 0 0 255 0 0 255 0 0 
255 0 0 255 0 0 255 0 0 255 0 0 255 0 0 255 0 0 255 17 0 255 51 0 255 68 0 255 68 0 255 85 0 255 102 0 255 102 0 255 102 0 255 102 0 255 102 0 255 102 0 255 102 0 255 102 0 255 85 0 255 85 0 255 68 0 255 51 0 255 34 0 255 17 0 255 0 0 255 0 0 255 0 0 255 0 0 255 0 0 255 0 0 255 0 0 
