P3
3 3
255
0 255 0 0 255 0 0 255 0 
0 255 0 255 119 0 0 255 0 
0 255 0 0 255 0 0 255 0 
